# xmcd
#
# Track frame offsets:
#	150
#	16440
#	45517
#	67542
#	97270
#
# Disc length: 2065 seconds
#
# Revision: 1
# Processed by: cddbd v1.5.2PL0 Copyright (c) Steve Scherf et al.
# Submitted via: audiograbber 1.83.01
#
DISCID=35080f05
DTITLE=Supperheads - Mad About The Girl [CDM)
DYEAR=2001
DGENRE=House
TTITLE0=Mad About The Girl (Radio Edit)
TTITLE1=Mad About The Girl (Long Version)
TTITLE2=Mad About The Girl (Loud Tribe Force Remix)
TTITLE3=Mad About The Girl (Injection Electronique Remix)
TTITLE4=Mad About The Girl (Video)
EXTD=TR.
EXTT0=
EXTT1=
EXTT2=
EXTT3=
EXTT4=
PLAYORDER=
